<svg xmlns="http://www.w3.org/2000/svg" width="130" height="18" viewBox="0 0 130 18">
    <g fill="none" fill-rule="evenodd">
        <g fill="#1A1A1A">
            <g>
                <g>
                    <path d="M17.455 0c9.64 0 17.454 4.03 17.454 8.998 0 4.973-7.814 9.002-17.454 9.002S0 13.97 0 8.998C0 4.03 7.815 0 17.455 0zm3.284 13.583c1.735-4.061-1.552-3.555-2.436-3.366-1.511.32-2.954.874-4.108 1.317-3.289 1.266-5.034 2.54-5.612 3.026-.07.061-.123.106-.158.143-.084.082-.144.167-.144.286 0 .131.12.24.35.318.017.006.075.03.098.036 2.509.77 5.506 1.22 8.728 1.22.026 0 .087.003.175 0 .385-.012.816-.097 1.163-.27 1.152-.577 1.653-2.028 1.944-2.71zm9.165-9.28h-.053c-.148.01-.231.1-.293.21-.04.07-.088.176-.14.283-.669 1.56-3.018 6.962-6.105 10.627-.074.09-.115.148-.149.21-.072.122-.058.22 0 .28.082.092.324.093.687.022 5.666-1.167 9.63-3.835 9.63-6.94 0-1.717-1.216-3.302-3.266-4.574-.168-.105-.281-.125-.364-.118zm94.07-1.764v12.924h-3.052v-3.998h-5.548v3.998h-3.047V5.183c0-.81.234-1.457.706-1.93.466-.476 1.115-.714 1.916-.714h9.024zm-79.596 0v4.923h5.544V2.54h3.055v12.923h-3.055v-5.197h-5.544v5.197h-3.056V2.54h3.056zm13.409 0l3.192 5.118 3.197-5.117h3.606l-5.274 8.446v4.477h-3.052v-4.477L54.18 2.54h3.606zm14.277 0v10.124h4.897c.38 0 .65-.29.65-.65V2.54h3.049v10.283c0 .804-.236 1.454-.704 1.928-.472.471-1.116.712-1.921.712h-9.027V2.54h3.056zm20.458 0c.802 0 1.445.238 1.92.714.463.472.702 1.12.702 1.929v10.28h-3.05V5.984c0-.335-.254-.645-.648-.645h-4.9v10.125h-3.053V2.54zm14.484 0c.797 0 1.444.238 1.914.711.47.474.706 1.122.706 1.932v7.64c0 .805-.236 1.455-.706 1.929-.47.471-1.113.712-1.914.712h-9.029V2.539zm22.994 0v12.924h-3.053V2.54H130zM11.745 2.084c-.085-.092-.326-.092-.69-.023-5.668 1.166-9.632 3.834-9.632 6.938 0 1.719 1.22 3.304 3.268 4.577.17.104.281.123.363.118.148-.01.232-.1.291-.21.042-.07.093-.176.142-.284.67-1.561 3.02-6.965 6.106-10.628.073-.087.113-.146.152-.21.067-.121.053-.218 0-.278zm94.159 3.255h-4.877v7.325h4.895c.399 0 .653-.32.653-.668V6.006c0-.387-.27-.668-.671-.668zm15.018 0h-4.898c-.404 0-.65.337-.65.657v2.671h5.548V5.337zM17.405 1.417l-.077.002c-.387.012-.815.095-1.164.27-1.15.576-1.653 2.028-1.944 2.706-1.734 4.062 1.55 3.559 2.438 3.371 1.511-.323 2.952-.874 4.108-1.32 3.286-1.266 5.031-2.538 5.612-3.026.07-.059.123-.105.157-.14.083-.084.144-.17.144-.287 0-.132-.118-.239-.35-.317-.017-.008-.076-.03-.095-.035-2.512-.772-5.509-1.222-8.732-1.222-.027 0-.089-.003-.174 0z" transform="translate(-60.000000, -3093.000000) translate(60.000000, 3038.000000) translate(0.000000, 55.000000)"/>
                </g>
            </g>
        </g>
    </g>
</svg>
